<svg version="1.1" id="Layer_1" xmlns="http://www.w3.org/2000/svg" xmlns:xlink="http://www.w3.org/1999/xlink" x="0px" y="0px"
	 width="100%" viewBox="0 0 512 512" enable-background="new 0 0 512 512" xml:space="preserve">
<path fill="#9BC5FF" opacity="1.000000" stroke="none" 
	d="
M1.000001,482.000000 
	C1.000000,332.312439 1.000000,182.624878 1.281760,32.798161 
	C2.124804,31.902512 2.895925,31.225252 3.215959,30.377666 
	C8.164895,17.270788 17.115126,8.210021 30.252954,3.251808 
	C31.010662,2.965850 31.425562,1.771561 32.000000,1.000000 
	C106.687561,1.000000 181.375122,1.000000 256.531311,1.468657 
	C257.016571,11.563382 257.033203,21.189451 256.582703,30.890110 
	C187.130341,30.976450 118.145111,30.986837 49.159882,31.001183 
	C36.415054,31.003834 31.001368,36.447369 31.001184,49.262459 
	C30.999193,187.733383 30.999249,326.204315 31.001074,464.675232 
	C31.001245,477.710022 36.374180,482.998932 49.605686,482.999268 
	C116.758255,483.000885 183.910812,482.998413 251.063385,483.007751 
	C253.058868,483.008026 255.054352,483.122986 257.035889,483.641357 
	C257.014618,493.732147 257.007324,503.366089 257.000000,513.000000 
	C182.312439,513.000000 107.624878,513.000000 32.796062,512.716797 
	C31.897980,511.872284 31.220348,511.101349 30.372484,510.781097 
	C17.265926,505.830292 8.206760,496.877502 3.247949,483.740356 
	C2.962834,482.985016 1.770245,482.572205 1.000001,482.000000 
z"/>
<path fill="#75B2FC" opacity="1.000000" stroke="none" 
	d="
M257.468658,513.000000 
	C257.007324,503.366089 257.014618,493.732147 256.998596,483.548615 
	C256.975220,482.998993 256.934509,482.803253 257.402435,482.881592 
	C327.189728,482.973328 396.509094,482.988281 465.828461,482.998566 
	C477.423767,483.000305 482.998322,477.475067 482.998505,465.978577 
	C483.000885,326.672913 483.000854,187.367233 482.998566,48.061565 
	C482.998383,36.527740 477.451263,31.001564 465.879211,31.001101 
	C398.059357,30.998394 330.239471,30.998184 262.419617,31.007954 
	C260.591187,31.008217 258.762756,31.131092 256.954742,31.098907 
	C256.975159,31.001026 257.049835,30.815519 257.049805,30.815519 
	C257.033203,21.189451 257.016571,11.563382 257.000000,1.468657 
	C331.687561,1.000000 406.375122,1.000000 481.213013,1.295824 
	C481.685272,1.967638 481.935577,2.548845 482.339569,2.689897 
	C495.884796,7.419487 505.518036,16.152283 510.480286,29.813869 
	C510.812012,30.727158 512.136963,31.279682 513.000000,31.999998 
	C513.000000,181.687561 513.000000,331.375122 512.714050,481.208740 
	C510.768860,484.594574 509.298218,487.948822 507.415161,491.052856 
	C501.616638,500.611053 493.550995,507.468781 482.875671,511.135590 
	C482.423676,511.290863 482.284790,512.357788 482.000000,513.000000 
	C407.312439,513.000000 332.624878,513.000000 257.468658,513.000000 
z"/>
<path fill="#000000" opacity="1.000000" stroke="none" 
	d="
M31.531342,1.000000 
	C31.425562,1.771561 31.010662,2.965850 30.252954,3.251808 
	C17.115126,8.210021 8.164895,17.270788 3.215959,30.377666 
	C2.895925,31.225252 2.124804,31.902512 1.281760,32.329502 
	C1.000000,21.740147 1.000000,11.480293 1.000000,1.000000 
	C11.019819,1.000000 21.041252,1.000000 31.531342,1.000000 
z"/>
<path fill="#000000" opacity="1.000000" stroke="none" 
	d="
M1.000001,482.468658 
	C1.770245,482.572205 2.962834,482.985016 3.247949,483.740356 
	C8.206760,496.877502 17.265926,505.830292 30.372484,510.781097 
	C31.220348,511.101349 31.897980,511.872284 32.327404,512.716797 
	C21.740145,513.000000 11.480290,513.000000 1.000000,513.000000 
	C1.000000,502.980194 1.000000,492.958740 1.000001,482.468658 
z"/>
<path fill="#000000" opacity="1.000000" stroke="none" 
	d="
M482.468689,513.000000 
	C482.284790,512.357788 482.423676,511.290863 482.875671,511.135590 
	C493.550995,507.468781 501.616638,500.611053 507.415161,491.052856 
	C509.298218,487.948822 510.768860,484.594574 512.714050,481.677368 
	C513.000000,492.259857 513.000000,502.519684 513.000000,513.000000 
	C502.980194,513.000000 492.958740,513.000000 482.468689,513.000000 
z"/>
<path fill="#000000" opacity="1.000000" stroke="none" 
	d="
M513.000000,31.531342 
	C512.136963,31.279682 510.812012,30.727158 510.480286,29.813869 
	C505.518036,16.152283 495.884796,7.419487 482.339569,2.689897 
	C481.935577,2.548845 481.685272,1.967638 481.681641,1.295824 
	C492.259857,1.000000 502.519684,1.000000 513.000000,1.000000 
	C513.000000,11.019819 513.000000,21.041252 513.000000,31.531342 
z"/>
<path fill="#053791" opacity="1.000000" stroke="none" 
	d="
M257.012512,483.091736 
	C255.054352,483.122986 253.058868,483.008026 251.063385,483.007751 
	C183.910812,482.998413 116.758255,483.000885 49.605686,482.999268 
	C36.374180,482.998932 31.001245,477.710022 31.001074,464.675232 
	C30.999249,326.204315 30.999193,187.733383 31.001184,49.262459 
	C31.001368,36.447369 36.415054,31.003834 49.159882,31.001183 
	C118.145111,30.986837 187.130341,30.976450 256.582703,30.890110 
	C257.049835,30.815519 256.975159,31.001026 256.973877,31.554218 
	C256.984161,72.018143 256.995728,111.928871 256.724731,151.681458 
	C240.679596,131.726532 220.167755,121.908707 194.840347,121.980583 
	C166.514847,122.060966 138.188950,121.994186 109.863220,122.001335 
	C97.490685,122.004463 92.001335,127.552956 92.000786,140.054092 
	C91.997375,218.033157 91.998901,296.012207 92.000359,373.991272 
	C92.000389,375.324127 91.915604,376.667419 92.048065,377.988037 
	C92.667465,384.163177 95.788460,388.606628 101.567772,390.931854 
	C111.648018,394.987457 121.945229,387.593933 121.972374,376.146667 
	C122.050217,343.322327 122.000587,310.497711 122.001060,277.673187 
	C122.001091,275.904266 122.001068,274.135315 122.001068,272.000977 
	C124.426643,272.000977 126.232056,272.000946 128.037460,272.000946 
	C150.531418,272.000885 173.026093,272.096558 195.518845,271.932007 
	C200.982788,271.892029 206.518341,271.414520 211.886887,270.416748 
	C230.387192,266.978394 244.890991,256.862183 256.868835,243.164490 
	C256.921295,323.368713 256.927917,403.085968 256.934509,482.803253 
	C256.934509,482.803253 256.975220,482.998993 257.012512,483.091736 
z"/>
<path fill="#1B2868" opacity="1.000000" stroke="none" 
	d="
M257.007324,151.839600 
	C256.995728,111.928871 256.984161,72.018143 256.953430,31.652100 
	C258.762756,31.131092 260.591187,31.008217 262.419617,31.007954 
	C330.239471,30.998184 398.059357,30.998394 465.879211,31.001101 
	C477.451263,31.001564 482.998383,36.527740 482.998566,48.061565 
	C483.000854,187.367233 483.000885,326.672913 482.998505,465.978577 
	C482.998322,477.475067 477.423767,483.000305 465.828461,482.998566 
	C396.509094,482.988281 327.189728,482.973328 257.402435,482.881592 
	C256.927917,403.085968 256.921295,323.368713 256.894958,242.961319 
	C256.875275,242.271210 256.955536,241.869278 257.238403,241.696259 
	C268.787994,226.155533 273.479156,208.827835 271.840668,190.005188 
	C270.645233,176.271683 266.279053,163.488083 257.121643,152.506439 
	C257.084869,152.283936 257.007324,151.839600 257.007324,151.839600 
M361.899170,378.858917 
	C361.899170,333.411163 361.899170,287.963379 361.899170,242.001389 
	C364.130035,242.001389 365.749451,242.001404 367.368835,242.001373 
	C380.034943,242.001175 392.701172,242.029953 405.367157,241.991394 
	C415.163300,241.961578 421.897949,235.900620 421.988037,227.135330 
	C422.079865,218.200256 415.247925,212.029846 405.153259,212.006058 
	C392.653900,211.976578 380.154358,211.998749 367.654907,211.998627 
	C365.889069,211.998611 364.123230,211.998642 362.002136,211.998642 
	C362.002136,197.029037 361.965637,182.723953 362.014435,168.419159 
	C362.049469,158.143906 368.220276,152.056290 378.583740,152.010330 
	C387.916473,151.968948 397.250916,152.096466 406.582092,151.969391 
	C415.480957,151.848175 422.029175,145.335785 421.988007,136.920029 
	C421.946960,128.529770 415.362518,122.117256 406.434082,122.026772 
	C396.269012,121.923752 386.098938,121.856537 375.936493,122.054161 
	C354.645142,122.468208 335.694336,137.862640 333.128448,158.964935 
	C331.269897,174.250031 332.268005,189.882889 332.003662,205.360886 
	C331.967834,207.458557 331.998749,209.557404 331.998749,211.999420 
	C327.016724,211.999420 322.709290,211.971146 318.402313,212.005173 
	C308.738525,212.081497 301.959381,218.329727 302.010742,227.076553 
	C302.062103,235.820816 308.824768,241.929535 318.563354,241.995605 
	C322.981781,242.025574 327.400604,242.000702 331.998749,242.000702 
	C331.998749,244.815033 331.998718,246.807632 331.998718,248.800232 
	C331.998779,290.798401 331.992767,332.796600 332.003693,374.794769 
	C332.006165,384.241089 336.752411,390.535645 344.787872,391.853455 
	C352.330048,393.090363 358.840546,388.433197 361.899170,378.858917 
z"/>
<path fill="#9BC5FF" opacity="1.000000" stroke="none" 
	d="
M256.724731,151.681458 
	C257.007324,151.839600 257.084869,152.283936 257.080566,152.991516 
	C257.036011,183.089172 256.995789,212.479218 256.955536,241.869278 
	C256.955536,241.869278 256.875275,242.271210 256.849121,242.474380 
	C244.890991,256.862183 230.387192,266.978394 211.886887,270.416748 
	C206.518341,271.414520 200.982788,271.892029 195.518845,271.932007 
	C173.026093,272.096558 150.531418,272.000885 128.037460,272.000946 
	C126.232056,272.000946 124.426643,272.000977 122.001068,272.000977 
	C122.001068,274.135315 122.001091,275.904266 122.001060,277.673187 
	C122.000587,310.497711 122.050217,343.322327 121.972374,376.146667 
	C121.945229,387.593933 111.648018,394.987457 101.567772,390.931854 
	C95.788460,388.606628 92.667465,384.163177 92.048065,377.988037 
	C91.915604,376.667419 92.000389,375.324127 92.000359,373.991272 
	C91.998901,296.012207 91.997375,218.033157 92.000786,140.054092 
	C92.001335,127.552956 97.490685,122.004463 109.863220,122.001335 
	C138.188950,121.994186 166.514847,122.060966 194.840347,121.980583 
	C220.167755,121.908707 240.679596,131.726532 256.724731,151.681458 
M202.832764,152.389084 
	C201.507645,152.276001 200.182648,152.065857 198.857391,152.064178 
	C174.048141,152.032578 149.238861,152.020981 124.429611,152.036072 
	C123.668190,152.036530 122.906967,152.368195 122.270508,152.516388 
	C122.270508,182.381516 122.270508,211.958160 122.270508,241.813141 
	C123.482613,241.884354 124.443993,241.989868 125.405411,241.990189 
	C149.382401,241.997910 173.360855,242.158813 197.335983,241.946533 
	C220.924347,241.737701 240.149033,223.638824 241.884735,200.443710 
	C243.648636,176.871689 227.319016,156.409653 202.832764,152.389084 
z"/>
<path fill="#75B2FC" opacity="1.000000" stroke="none" 
	d="
M361.833069,379.283325 
	C358.840546,388.433197 352.330048,393.090363 344.787872,391.853455 
	C336.752411,390.535645 332.006165,384.241089 332.003693,374.794769 
	C331.992767,332.796600 331.998779,290.798401 331.998718,248.800232 
	C331.998718,246.807632 331.998749,244.815033 331.998749,242.000702 
	C327.400604,242.000702 322.981781,242.025574 318.563354,241.995605 
	C308.824768,241.929535 302.062103,235.820816 302.010742,227.076553 
	C301.959381,218.329727 308.738525,212.081497 318.402313,212.005173 
	C322.709290,211.971146 327.016724,211.999420 331.998749,211.999420 
	C331.998749,209.557404 331.967834,207.458557 332.003662,205.360886 
	C332.268005,189.882889 331.269897,174.250031 333.128448,158.964935 
	C335.694336,137.862640 354.645142,122.468208 375.936493,122.054161 
	C386.098938,121.856537 396.269012,121.923752 406.434082,122.026772 
	C415.362518,122.117256 421.946960,128.529770 421.988007,136.920029 
	C422.029175,145.335785 415.480957,151.848175 406.582092,151.969391 
	C397.250916,152.096466 387.916473,151.968948 378.583740,152.010330 
	C368.220276,152.056290 362.049469,158.143906 362.014435,168.419159 
	C361.965637,182.723953 362.002136,197.029037 362.002136,211.998642 
	C364.123230,211.998642 365.889069,211.998611 367.654907,211.998627 
	C380.154358,211.998749 392.653900,211.976578 405.153259,212.006058 
	C415.247925,212.029846 422.079865,218.200256 421.988037,227.135330 
	C421.897949,235.900620 415.163300,241.961578 405.367157,241.991394 
	C392.701172,242.029953 380.034943,242.001175 367.368835,242.001373 
	C365.749451,242.001404 364.130035,242.001389 361.899170,242.001389 
	C361.899170,287.963379 361.899170,333.411163 361.833069,379.283325 
z"/>
<path fill="#74B1FA" opacity="1.000000" stroke="none" 
	d="
M257.238403,241.696259 
	C256.995789,212.479218 257.036011,183.089172 257.117340,153.214020 
	C266.279053,163.488083 270.645233,176.271683 271.840668,190.005188 
	C273.479156,208.827835 268.787994,226.155533 257.238403,241.696259 
z"/>
<path fill="#053791" opacity="1.000000" stroke="none" 
	d="
M203.263184,152.488480 
	C227.319016,156.409653 243.648636,176.871689 241.884735,200.443710 
	C240.149033,223.638824 220.924347,241.737701 197.335983,241.946533 
	C173.360855,242.158813 149.382401,241.997910 125.405411,241.990189 
	C124.443993,241.989868 123.482613,241.884354 122.270508,241.813141 
	C122.270508,211.958160 122.270508,182.381516 122.270508,152.516388 
	C122.906967,152.368195 123.668190,152.036530 124.429611,152.036072 
	C149.238861,152.020981 174.048141,152.032578 198.857391,152.064178 
	C200.182648,152.065857 201.507645,152.276001 203.263184,152.488480 
z"/>
</svg>